<?xml version="1.0" standalone="no"?>
<!DOCTYPE svg PUBLIC "-//W3C//DTD SVG 20010904//EN"
 "http://www.w3.org/TR/2001/REC-SVG-20010904/DTD/svg10.dtd">
<svg version="1.0" xmlns="http://www.w3.org/2000/svg"
 width="288.000000pt" height="288.000000pt" viewBox="0 0 288.000000 288.000000"
 preserveAspectRatio="xMidYMid meet">
<metadata>
Created by potrace 1.14, written by Peter Selinger 2001-2017
</metadata>
<g transform="translate(0.000000,288.000000) scale(0.100000,-0.100000)"
fill="#000000" stroke="none">
<path d="M1575 1440 l0 -1440 273 0 272 0 -2 1338 -3 1337 -27 51 c-33 62 -95
118 -153 138 -30 10 -92 15 -202 15 l-158 2 0 -1441z"/>
<path d="M940 1981 c-55 -20 -148 -110 -157 -152 -3 -16 -9 -32 -14 -35 -5 -3
-9 -407 -9 -899 l0 -895 272 0 273 0 0 998 0 997 -160 1 c-126 2 -170 -2 -205
-15z"/>
</g>
</svg>
