<svg width="198" height="73" viewBox="0 0 198 73" fill="none" xmlns="http://www.w3.org/2000/svg">
<path d="M19.8633 20.6016C25.9805 20.6016 30.5625 21.7734 33.6094 24.1172C36.6562 26.4609 38.1797 30.1055 38.1797 35.0508C38.1797 37.582 37.7695 39.832 36.9492 41.8008C36.1523 43.7461 34.9453 45.3867 33.3281 46.7227C31.7109 48.0586 29.6836 49.0664 27.2461 49.7461C24.832 50.4258 22.0078 50.7656 18.7734 50.7656H10.8633V72H7.24219V20.6016H19.8633ZM19.4766 23.8008H10.8633V47.5664H18.4219C21.75 47.5664 24.6094 47.1914 27 46.4414C29.3906 45.668 31.2305 44.3789 32.5195 42.5742C33.8086 40.7695 34.4531 38.3086 34.4531 35.1914C34.4531 31.2305 33.2344 28.3477 30.7969 26.543C28.3594 24.7148 24.5859 23.8008 19.4766 23.8008ZM80.1562 52.8398C80.1562 55.793 79.793 58.4883 79.0664 60.9258C78.3398 63.3398 77.2617 65.4258 75.832 67.1836C74.4023 68.9414 72.6211 70.3008 70.4883 71.2617C68.3789 72.2227 65.918 72.7031 63.1055 72.7031C60.4336 72.7031 58.0547 72.2344 55.9688 71.2969C53.8828 70.3359 52.1133 68.9766 50.6602 67.2188C49.2305 65.4609 48.1406 63.375 47.3906 60.9609C46.6406 58.5234 46.2656 55.8164 46.2656 52.8398C46.2656 48.7383 46.9453 45.2109 48.3047 42.2578C49.6875 39.2812 51.6562 37.0078 54.2109 35.4375C56.7891 33.8438 59.8711 33.0469 63.457 33.0469C67.1602 33.0469 70.2422 33.8906 72.7031 35.5781C75.1875 37.2422 77.0508 39.5625 78.293 42.5391C79.5352 45.5156 80.1562 48.9492 80.1562 52.8398ZM49.9219 52.8398C49.9219 56.1914 50.4023 59.1211 51.3633 61.6289C52.3242 64.1367 53.7773 66.0938 55.7227 67.5C57.6914 68.9062 60.1758 69.6094 63.1758 69.6094C66.2461 69.6094 68.7656 68.9062 70.7344 67.5C72.7031 66.0938 74.1562 64.125 75.0938 61.5938C76.0312 59.0625 76.5 56.1445 76.5 52.8398C76.5 49.6289 76.0547 46.7695 75.1641 44.2617C74.2734 41.7539 72.8672 39.7852 70.9453 38.3555C69.0234 36.9023 66.5156 36.1758 63.4219 36.1758C58.9922 36.1758 55.6289 37.6523 53.332 40.6055C51.0586 43.5586 49.9219 47.6367 49.9219 52.8398ZM127.547 69.5039C127.547 68.4727 127.781 67.6875 128.25 67.1484C128.719 66.5859 129.41 66.3047 130.324 66.3047C131.332 66.3047 132.07 66.5859 132.539 67.1484C133.008 67.6875 133.242 68.4727 133.242 69.5039C133.242 70.5352 133.008 71.332 132.539 71.8945C132.07 72.457 131.332 72.7383 130.324 72.7383C129.41 72.7383 128.719 72.457 128.25 71.8945C127.781 71.332 127.547 70.5352 127.547 69.5039ZM148.816 33.7852V72H145.266V33.7852H148.816ZM147.094 19.6523C147.984 19.6523 148.641 19.9219 149.062 20.4609C149.484 20.9766 149.695 21.6797 149.695 22.5703C149.695 23.4609 149.484 24.1641 149.062 24.6797C148.641 25.1953 147.984 25.4531 147.094 25.4531C146.25 25.4531 145.617 25.1953 145.195 24.6797C144.773 24.1641 144.562 23.4609 144.562 22.5703C144.562 21.6797 144.773 20.9766 145.195 20.4609C145.617 19.9219 146.25 19.6523 147.094 19.6523ZM193.289 52.8398C193.289 55.793 192.926 58.4883 192.199 60.9258C191.473 63.3398 190.395 65.4258 188.965 67.1836C187.535 68.9414 185.754 70.3008 183.621 71.2617C181.512 72.2227 179.051 72.7031 176.238 72.7031C173.566 72.7031 171.188 72.2344 169.102 71.2969C167.016 70.3359 165.246 68.9766 163.793 67.2188C162.363 65.4609 161.273 63.375 160.523 60.9609C159.773 58.5234 159.398 55.8164 159.398 52.8398C159.398 48.7383 160.078 45.2109 161.438 42.2578C162.82 39.2812 164.789 37.0078 167.344 35.4375C169.922 33.8438 173.004 33.0469 176.59 33.0469C180.293 33.0469 183.375 33.8906 185.836 35.5781C188.32 37.2422 190.184 39.5625 191.426 42.5391C192.668 45.5156 193.289 48.9492 193.289 52.8398ZM163.055 52.8398C163.055 56.1914 163.535 59.1211 164.496 61.6289C165.457 64.1367 166.91 66.0938 168.855 67.5C170.824 68.9062 173.309 69.6094 176.309 69.6094C179.379 69.6094 181.898 68.9062 183.867 67.5C185.836 66.0938 187.289 64.125 188.227 61.5938C189.164 59.0625 189.633 56.1445 189.633 52.8398C189.633 49.6289 189.188 46.7695 188.297 44.2617C187.406 41.7539 186 39.7852 184.078 38.3555C182.156 36.9023 179.648 36.1758 176.555 36.1758C172.125 36.1758 168.762 37.6523 166.465 40.6055C164.191 43.5586 163.055 47.6367 163.055 52.8398Z" fill="white"/>
<path d="M89 27C89 24.2386 91.2386 22 94 22H99V72H89V27Z" fill="#FF647C"/>
<path d="M104 0H109C111.761 0 114 2.23858 114 5V72H104V0Z" fill="#6979F8"/>
</svg>
